<?xml version="1.0" encoding="UTF-8" standalone="no"?>
<!DOCTYPE svg PUBLIC "-//W3C//DTD SVG 1.1//EN" "http://www.w3.org/Graphics/SVG/1.1/DTD/svg11.dtd">
<svg xmlns="http://www.w3.org/2000/svg" version="1.1" viewBox="0 0 517 482">
<path fill="#e74547" d="
  M 318.55 149.38
  Q 308.20 142.15 294.94 140.06
  Q 281.19 137.90 269.50 137.42
  Q 254.26 136.80 239.00 136.79
  Q 175.14 136.75 111.27 136.75
  Q 105.77 136.75 105.75 136.75
  Q 102.94 136.22 102.52 133.19
  Q 102.49 132.97 102.51 128.80
  Q 102.62 93.80 102.26 59.65
  Q 102.24 57.48 102.47 55.32
  Q 102.90 51.20 106.75 51.20
  Q 192.75 51.25 278.75 51.25
  Q 306.08 51.25 334.29 57.62
  Q 345.01 60.05 353.53 63.00
  Q 387.03 74.62 411.56 98.69
  Q 436.18 122.84 443.56 157.19
  Q 448.63 180.77 447.51 204.03
  Q 447.01 214.44 445.07 223.87
  Q 435.84 268.72 399.29 297.75
  Q 374.20 317.68 343.26 326.28
  Q 321.03 332.46 298.00 334.00
  Q 286.96 334.74 256.76 334.57
  Q 245.83 334.51 236.75 334.72
  Q 225.87 334.97 215.00 335.25
  Q 211.53 335.34 211.68 338.77
  Q 211.74 340.18 211.74 340.23
  Q 211.29 399.37 211.25 420.75
  Q 211.24 426.50 210.92 430.78
  Q 210.73 433.32 209.67 434.39
  Q 208.36 435.71 206.22 435.58
  Q 204.84 435.50 204.76 435.50
  Q 136.76 435.25 107.00 435.00
  Q 103.90 434.97 103.34 432.62
  Q 103.26 432.29 103.24 428.87
  Q 102.68 340.10 102.56 252.17
  Q 102.56 248.75 105.98 248.75
  Q 185.25 248.75 264.50 248.75
  Q 282.45 248.75 284.49 248.60
  Q 307.80 246.88 325.69 232.19
  Q 331.22 227.64 333.83 220.71
  Q 335.41 216.49 336.93 207.32
  Q 338.77 196.27 337.96 185.00
  Q 337.14 173.58 331.85 164.03
  Q 327.02 155.30 318.55 149.38
  Z"
/>
</svg>
